# xmcd
#
# Track frame offsets:
#	150
#	15306
#	27755
#	42997
#	91955
#	115579
#	147291
#	164710
#	176628
#	203694
#	225226
#	247917
#	272051
#	304589
#
# Disc length: 4570 seconds
#
# Revision: 2
# Processed by: cddbd v1.5.2PL0 Copyright (c) Steve Scherf et al.
# Submitted via: EZCDAudioConverter 1.3.4.1
#
DISCID=a811d80e
DTITLE=The Kelly Richey Band - Live
DYEAR=1998
DGENRE=Rock and Roll
TTITLE0=My Baby's Gone Crazy
TTITLE1=Talks All Over Town
TTITLE2=Traveling
TTITLE3=Red House
TTITLE4=The Blues Don't Lie
TTITLE5=Walkin' By Myself
TTITLE6=Cracked and Bent
TTITLE7=Is Anybody Listening
TTITLE8=It Was A Good Time
TTITLE9=Further On Up the Road
TTITLE10=Trouble in Mind
TTITLE11=Before You Accuse Me
TTITLE12=Crossroads
TTITLE13=All Along the Watchtower
EXTD=
EXTT0=
EXTT1=
EXTT2=
EXTT3=
EXTT4=
EXTT5=
EXTT6=
EXTT7=
EXTT8=
EXTT9=
EXTT10=
EXTT11=
EXTT12=
EXTT13=
PLAYORDER=
